<?xml version="1.0" encoding="UTF-8"?>
<!-- Generated by Pixelmator Pro 3.0.1 -->
<svg width="16" height="16" viewBox="0 0 16 16" xmlns="http://www.w3.org/2000/svg" xmlns:xlink="http://www.w3.org/1999/xlink">
    <path id="Percorso" fill="#ffffff" fill-rule="evenodd" stroke="none" d="M 1 8 C 1 11.865993 4.134007 15 8 15 C 11.865993 15 15 11.865993 15 8 C 15 4.134007 11.865993 1 8 1 C 4.134007 1 1 4.134007 1 8 Z M 16 8 C 16 12.418278 12.418278 16 8 16 C 3.581722 16 0 12.418278 0 8 C 0 3.581722 3.581722 0 8 0 C 12.418278 0 16 3.581722 16 8 Z M 5.854 10.803 C 5.658767 10.998508 5.342009 10.998733 5.1465 10.8035 C 4.950991 10.608268 4.950768 10.291509 5.146 10.096 L 9.243 6 L 6.475 6 C 6.198858 6 5.975 5.776142 5.975 5.5 C 5.975 5.223858 6.198858 5 6.475 5 L 10.45 5 C 10.726142 5 10.95 5.223858 10.95 5.5 L 10.95 9.475 C 10.95 9.751143 10.726142 9.975 10.45 9.975 C 10.173858 9.975 9.95 9.751143 9.95 9.475 L 9.95 6.707 L 5.854 10.803 Z"/>
</svg>
