<?xml version="1.0" encoding="UTF-8"?>
<!-- Generated by Pixelmator Pro 3.0.1 -->
<svg width="16" height="16" viewBox="0 0 16 16" xmlns="http://www.w3.org/2000/svg" xmlns:xlink="http://www.w3.org/1999/xlink">
    <path id="Percorso" fill="#ffffff" stroke="none" d="M 8 15 C 4.134007 15 1 11.865993 1 8 C 1 4.134007 4.134007 1 8 1 C 11.865993 1 15 4.134007 15 8 C 15 11.865993 11.865993 15 8 15 Z M 8 16 C 12.418278 16 16 12.418278 16 8 C 16 3.581722 12.418278 0 8 0 C 3.581722 0 0 3.581722 0 8 C 0 12.418278 3.581722 16 8 16 Z"/>
    <path id="path1" fill="#ffffff" stroke="none" d="M 10.97 4.969999 C 10.962875 4.976904 10.956196 4.984252 10.95 4.992001 L 7.477 9.417 L 5.384 7.323 C 5.08849 7.047642 4.62799 7.055766 4.342378 7.341378 C 4.056766 7.62699 4.048641 8.08749 4.324 8.383 L 6.97 11.03 C 7.114025 11.173762 7.310285 11.25283 7.513746 11.249058 C 7.717207 11.245287 7.910402 11.159001 8.049 11.01 L 12.041 6.02 C 12.323843 5.723134 12.31585 5.254149 12.023054 4.967094 C 11.730259 4.68004 11.261208 4.681334 10.97 4.969999 Z"/>
</svg>
