<?xml version="1.0" encoding="UTF-8"?>
<!-- Generated by Pixelmator Pro 3.0.1 -->
<svg width="16" height="16" viewBox="0 0 16 16" xmlns="http://www.w3.org/2000/svg" xmlns:xlink="http://www.w3.org/1999/xlink">
    <path id="Percorso" fill="#ffffff" stroke="none" d="M 8 0 C 5.829 0 5.556 0.01 4.703 0.048 C 3.85 0.088 3.269 0.222 2.76 0.42 C 2.226094 0.620819 1.742491 0.935826 1.343 1.343 C 0.936076 1.742696 0.621107 2.22624 0.42 2.76 C 0.222 3.268 0.087 3.85 0.048 4.7 C 0.01 5.555 0 5.827 0 8.001 C 0 10.173 0.01 10.445 0.048 11.298 C 0.088 12.15 0.222 12.731 0.42 13.24 C 0.625 13.766 0.898 14.212 1.343 14.657 C 1.787 15.102 2.233 15.376 2.759 15.58 C 3.269 15.778 3.849 15.913 4.701 15.952 C 5.555 15.99 5.827 16 8 16 C 10.173 16 10.444 15.99 11.298 15.952 C 12.149 15.912 12.732 15.778 13.241 15.58 C 13.774563 15.379081 14.257818 15.064077 14.657 14.657 C 15.102 14.212 15.375 13.766 15.58 13.24 C 15.777 12.731 15.912 12.15 15.952 11.298 C 15.99 10.445 16 10.173 16 8 C 16 5.827 15.99 5.555 15.952 4.701 C 15.912 3.85 15.777 3.268 15.58 2.76 C 15.378922 2.226225 15.063949 1.742676 14.657 1.343 C 14.257632 0.935676 13.773993 0.620646 13.24 0.42 C 12.73 0.222 12.148 0.087 11.297 0.048 C 10.443 0.01 10.172 0 7.998 0 L 8.001 0 Z M 7.283 1.442 L 8.001 1.442 C 10.137 1.442 10.39 1.449 11.233 1.488 C 12.013 1.523 12.437 1.654 12.719 1.763 C 13.092 1.908 13.359 2.082 13.639 2.362 C 13.919 2.642 14.092 2.908 14.237 3.282 C 14.347 3.563 14.477 3.987 14.512 4.767 C 14.551 5.610001 14.559 5.863 14.559 7.998 C 14.559 10.133 14.551 10.387 14.512 11.23 C 14.477 12.01 14.346 12.433 14.237 12.715 C 14.108742 13.06236 13.904027 13.376438 13.638 13.634 C 13.358 13.914 13.092 14.087 12.718 14.232 C 12.438 14.342 12.014 14.472 11.233 14.508 C 10.39 14.546 10.137 14.555 8.001 14.555 C 5.865 14.555 5.611 14.546 4.768 14.508 C 3.988 14.472 3.565 14.342 3.283 14.232 C 2.935499 14.103921 2.621126 13.899579 2.363 13.634 C 2.096751 13.376034 1.891723 13.061658 1.763 12.714 C 1.654 12.433 1.523 12.009 1.488 11.229 C 1.45 10.386 1.442 10.133 1.442 7.996 C 1.442 5.860001 1.45 5.608 1.488 4.764999 C 1.524 3.985 1.654 3.561 1.764 3.279 C 1.909 2.906 2.083 2.639 2.363 2.359 C 2.643 2.079 2.909 1.906 3.283 1.761 C 3.565 1.651 3.988 1.521 4.768 1.485 C 5.506 1.451 5.792 1.441 7.283 1.440001 L 7.283 1.442 Z M 12.271 2.77 C 11.740807 2.77 11.311 3.199806 11.311 3.73 C 11.311 4.260193 11.740807 4.690001 12.271 4.690001 C 12.801193 4.690001 13.231 4.260193 13.231 3.73 C 13.231 3.199806 12.801193 2.77 12.271 2.77 Z M 8.001 3.892 C 6.517898 3.868861 5.137445 4.646837 4.389134 5.927523 C 3.640823 7.20821 3.640823 8.79279 4.389134 10.073477 C 5.137445 11.354163 6.517898 12.132139 8.001 12.109 C 10.245071 12.073989 12.0459 10.244844 12.0459 8.0005 C 12.0459 5.756155 10.245071 3.927011 8.001 3.892 Z M 8.001 5.333 C 9.473944 5.333 10.668 6.527057 10.668 8 C 10.668 9.472943 9.473944 10.667 8.001 10.667 C 6.528057 10.667 5.334 9.472943 5.334 8 C 5.334 6.527057 6.528057 5.333 8.001 5.333 Z"/>
</svg>
