<?xml version="1.0" encoding="UTF-8"?>
<!-- Generated by Pixelmator Pro 3.0.1 -->
<svg width="16" height="16" viewBox="0 0 16 16" xmlns="http://www.w3.org/2000/svg" xmlns:xlink="http://www.w3.org/1999/xlink">
    <path id="Percorso" fill="#ffffff" stroke="none" d="M 8 0 C 4.151713 -0.002441 0.846981 2.735381 0.13359 6.516968 C -0.579802 10.298553 1.500319 14.05222 5.085 15.452 C 5.015 14.819 4.951 13.846 5.112 13.155 C 5.258 12.53 6.05 9.178 6.05 9.178 C 6.05 9.178 5.811 8.699 5.811 7.991 C 5.811 6.878 6.456 6.048 7.259 6.048 C 7.941 6.048 8.271 6.559999 8.271 7.175 C 8.271 7.861 7.834 8.887 7.608 9.838 C 7.42 10.634 8.008 11.284 8.793 11.284 C 10.215 11.284 11.308 9.784 11.308 7.62 C 11.308 5.705 9.931 4.366 7.966 4.366 C 5.69 4.366 4.354 6.073 4.354 7.837 C 4.354 8.525 4.619 9.262 4.949 9.663 C 5.006807 9.724488 5.028071 9.81182 5.005 9.893 C 4.944 10.145 4.809 10.689 4.783 10.8 C 4.748 10.946 4.667 10.977 4.515 10.907 C 3.515 10.442 2.891 8.981 2.891 7.807 C 2.891 5.284 4.725 2.967 8.177 2.967 C 10.952 2.967 13.109 4.944 13.109 7.587 C 13.109 10.344 11.37 12.563 8.958 12.563 C 8.147 12.563 7.385 12.142 7.124 11.644 L 6.626 13.546 C 6.445 14.241 5.957 15.112 5.631 15.643 C 8.635744 16.572044 11.906067 15.654316 13.988756 13.29762 C 16.071445 10.940925 16.58004 7.582567 15.28854 4.714878 C 13.997039 1.847191 11.145092 0.002296 8 0 Z"/>
</svg>
